<mxfile host="app.diagrams.net" modified="2022-11-27T17:45:30.612Z" agent="5.0 (Windows NT 10.0; Win64; x64) AppleWebKit/537.36 (KHTML, like Gecko) Chrome/107.0.0.0 Safari/537.36" etag="BgQj0GwpCU83P_fTPwmL" version="20.6.0" type="github">
  <diagram id="kgpKYQtTHZ0yAKxKKP6v" name="Page-1">
    <mxGraphModel dx="1185" dy="623" grid="1" gridSize="10" guides="1" tooltips="1" connect="1" arrows="1" fold="1" page="1" pageScale="1" pageWidth="850" pageHeight="1100" math="0" shadow="0">
      <root>
        <mxCell id="0" />
        <mxCell id="1" parent="0" />
        <mxCell id="WNVeSD9VwTEbAtaYM4Q_-39" value="" style="html=1;points=[];perimeter=orthogonalPerimeter;" vertex="1" parent="1">
          <mxGeometry x="310" y="295" width="10" height="185" as="geometry" />
        </mxCell>
        <mxCell id="WNVeSD9VwTEbAtaYM4Q_-40" value="" style="html=1;points=[];perimeter=orthogonalPerimeter;" vertex="1" parent="1">
          <mxGeometry x="480" y="320" width="10" height="140" as="geometry" />
        </mxCell>
        <mxCell id="WNVeSD9VwTEbAtaYM4Q_-12" value="Payments Microservice Sequence Diagram" style="text;html=1;strokeColor=none;fillColor=none;align=center;verticalAlign=middle;whiteSpace=wrap;rounded=0;" vertex="1" parent="1">
          <mxGeometry x="285" y="80" width="280" height="30" as="geometry" />
        </mxCell>
        <mxCell id="WNVeSD9VwTEbAtaYM4Q_-14" value="Payments" style="shape=umlLifeline;perimeter=lifelinePerimeter;whiteSpace=wrap;html=1;container=1;collapsible=0;recursiveResize=0;outlineConnect=0;" vertex="1" parent="1">
          <mxGeometry x="265" y="150" width="100" height="500" as="geometry" />
        </mxCell>
        <mxCell id="WNVeSD9VwTEbAtaYM4Q_-25" value="ticket Ownership()" style="html=1;verticalAlign=bottom;endArrow=open;dashed=1;endSize=8;rounded=0;" edge="1" parent="WNVeSD9VwTEbAtaYM4Q_-14" target="WNVeSD9VwTEbAtaYM4Q_-15">
          <mxGeometry relative="1" as="geometry">
            <mxPoint x="45" y="230" as="sourcePoint" />
            <mxPoint x="-35" y="230" as="targetPoint" />
          </mxGeometry>
        </mxCell>
        <mxCell id="WNVeSD9VwTEbAtaYM4Q_-15" value="" style="shape=umlLifeline;participant=umlActor;perimeter=lifelinePerimeter;whiteSpace=wrap;html=1;container=1;collapsible=0;recursiveResize=0;verticalAlign=top;spacingTop=36;outlineConnect=0;" vertex="1" parent="1">
          <mxGeometry x="150" y="150" width="20" height="500" as="geometry" />
        </mxCell>
        <mxCell id="WNVeSD9VwTEbAtaYM4Q_-38" value="" style="html=1;points=[];perimeter=orthogonalPerimeter;" vertex="1" parent="WNVeSD9VwTEbAtaYM4Q_-15">
          <mxGeometry x="5" y="50" width="10" height="280" as="geometry" />
        </mxCell>
        <mxCell id="WNVeSD9VwTEbAtaYM4Q_-17" value="Stripe API" style="shape=umlLifeline;perimeter=lifelinePerimeter;whiteSpace=wrap;html=1;container=1;collapsible=0;recursiveResize=0;outlineConnect=0;" vertex="1" parent="1">
          <mxGeometry x="435" y="150" width="100" height="500" as="geometry" />
        </mxCell>
        <mxCell id="WNVeSD9VwTEbAtaYM4Q_-18" value="Tickets" style="shape=umlLifeline;perimeter=lifelinePerimeter;whiteSpace=wrap;html=1;container=1;collapsible=0;recursiveResize=0;outlineConnect=0;" vertex="1" parent="1">
          <mxGeometry x="615" y="150" width="100" height="500" as="geometry" />
        </mxCell>
        <mxCell id="WNVeSD9VwTEbAtaYM4Q_-20" value="return Availability()" style="html=1;verticalAlign=bottom;endArrow=open;dashed=1;endSize=8;rounded=0;" edge="1" parent="WNVeSD9VwTEbAtaYM4Q_-18" target="WNVeSD9VwTEbAtaYM4Q_-15">
          <mxGeometry relative="1" as="geometry">
            <mxPoint x="45" y="100" as="sourcePoint" />
            <mxPoint x="-35" y="100" as="targetPoint" />
          </mxGeometry>
        </mxCell>
        <mxCell id="WNVeSD9VwTEbAtaYM4Q_-41" value="" style="html=1;points=[];perimeter=orthogonalPerimeter;" vertex="1" parent="WNVeSD9VwTEbAtaYM4Q_-18">
          <mxGeometry x="45" y="70" width="10" height="190" as="geometry" />
        </mxCell>
        <mxCell id="WNVeSD9VwTEbAtaYM4Q_-19" value="Check Ticket Availability()" style="html=1;verticalAlign=bottom;endArrow=block;rounded=0;" edge="1" parent="1" target="WNVeSD9VwTEbAtaYM4Q_-18">
          <mxGeometry width="80" relative="1" as="geometry">
            <mxPoint x="160" y="230" as="sourcePoint" />
            <mxPoint x="220" y="230" as="targetPoint" />
          </mxGeometry>
        </mxCell>
        <mxCell id="WNVeSD9VwTEbAtaYM4Q_-22" value="pay()" style="html=1;verticalAlign=bottom;endArrow=block;rounded=0;" edge="1" parent="1" target="WNVeSD9VwTEbAtaYM4Q_-14">
          <mxGeometry width="80" relative="1" as="geometry">
            <mxPoint x="160" y="310" as="sourcePoint" />
            <mxPoint x="240" y="310" as="targetPoint" />
          </mxGeometry>
        </mxCell>
        <mxCell id="WNVeSD9VwTEbAtaYM4Q_-23" value="process Payment()" style="html=1;verticalAlign=bottom;endArrow=block;rounded=0;" edge="1" parent="1">
          <mxGeometry width="80" relative="1" as="geometry">
            <mxPoint x="314.66666666666674" y="330" as="sourcePoint" />
            <mxPoint x="484.5000000000002" y="330" as="targetPoint" />
          </mxGeometry>
        </mxCell>
        <mxCell id="WNVeSD9VwTEbAtaYM4Q_-24" value="successful()" style="html=1;verticalAlign=bottom;endArrow=open;dashed=1;endSize=8;rounded=0;" edge="1" parent="1">
          <mxGeometry relative="1" as="geometry">
            <mxPoint x="484.5" y="366" as="sourcePoint" />
            <mxPoint x="314.66666666666674" y="366" as="targetPoint" />
          </mxGeometry>
        </mxCell>
        <mxCell id="WNVeSD9VwTEbAtaYM4Q_-29" value="update Availability()" style="html=1;verticalAlign=bottom;endArrow=block;rounded=0;" edge="1" parent="1" source="WNVeSD9VwTEbAtaYM4Q_-14" target="WNVeSD9VwTEbAtaYM4Q_-18">
          <mxGeometry width="80" relative="1" as="geometry">
            <mxPoint x="480" y="400" as="sourcePoint" />
            <mxPoint x="560" y="400" as="targetPoint" />
          </mxGeometry>
        </mxCell>
        <mxCell id="WNVeSD9VwTEbAtaYM4Q_-31" value="payment Failure()" style="html=1;verticalAlign=bottom;endArrow=open;dashed=1;endSize=8;rounded=0;" edge="1" parent="1">
          <mxGeometry relative="1" as="geometry">
            <mxPoint x="483.83" y="454.9999999999999" as="sourcePoint" />
            <mxPoint x="313.9966666666667" y="454.9999999999999" as="targetPoint" />
          </mxGeometry>
        </mxCell>
        <mxCell id="WNVeSD9VwTEbAtaYM4Q_-32" value="error()" style="html=1;verticalAlign=bottom;endArrow=open;dashed=1;endSize=8;rounded=0;" edge="1" parent="1">
          <mxGeometry relative="1" as="geometry">
            <mxPoint x="312" y="471" as="sourcePoint" />
            <mxPoint x="161.81034482758628" y="471" as="targetPoint" />
          </mxGeometry>
        </mxCell>
        <mxCell id="WNVeSD9VwTEbAtaYM4Q_-33" value="Alternative" style="shape=umlFrame;whiteSpace=wrap;html=1;" vertex="1" parent="1">
          <mxGeometry x="80" y="340" width="618" height="170" as="geometry" />
        </mxCell>
        <mxCell id="WNVeSD9VwTEbAtaYM4Q_-35" value="" style="endArrow=none;dashed=1;html=1;rounded=0;entryX=1.002;entryY=0.526;entryDx=0;entryDy=0;entryPerimeter=0;" edge="1" parent="1" source="WNVeSD9VwTEbAtaYM4Q_-33">
          <mxGeometry width="50" height="50" relative="1" as="geometry">
            <mxPoint x="110.00000000000009" y="432.0399999999999" as="sourcePoint" />
            <mxPoint x="701.7700000000001" y="429.99999999999994" as="targetPoint" />
          </mxGeometry>
        </mxCell>
        <mxCell id="WNVeSD9VwTEbAtaYM4Q_-36" value="" style="endArrow=none;dashed=1;html=1;rounded=0;exitX=0.002;exitY=0.498;exitDx=0;exitDy=0;exitPerimeter=0;entryX=0.998;entryY=0.498;entryDx=0;entryDy=0;entryPerimeter=0;" edge="1" parent="1" source="WNVeSD9VwTEbAtaYM4Q_-33" target="WNVeSD9VwTEbAtaYM4Q_-33">
          <mxGeometry width="50" height="50" relative="1" as="geometry">
            <mxPoint x="460" y="420" as="sourcePoint" />
            <mxPoint x="510" y="370" as="targetPoint" />
          </mxGeometry>
        </mxCell>
        <mxCell id="WNVeSD9VwTEbAtaYM4Q_-37" value="Else" style="text;html=1;strokeColor=none;fillColor=none;align=center;verticalAlign=middle;whiteSpace=wrap;rounded=0;" vertex="1" parent="1">
          <mxGeometry x="70" y="420" width="60" height="30" as="geometry" />
        </mxCell>
        <mxCell id="WNVeSD9VwTEbAtaYM4Q_-42" value="IF Available" style="shape=umlFrame;whiteSpace=wrap;html=1;" vertex="1" parent="1">
          <mxGeometry x="40" y="270" width="710" height="310" as="geometry" />
        </mxCell>
        <mxCell id="WNVeSD9VwTEbAtaYM4Q_-43" value="Else" style="text;html=1;strokeColor=none;fillColor=none;align=center;verticalAlign=middle;whiteSpace=wrap;rounded=0;" vertex="1" parent="1">
          <mxGeometry x="40" y="520" width="60" height="30" as="geometry" />
        </mxCell>
        <mxCell id="WNVeSD9VwTEbAtaYM4Q_-44" value="" style="endArrow=none;dashed=1;html=1;rounded=0;exitX=0;exitY=0;exitDx=0;exitDy=0;" edge="1" parent="1" source="WNVeSD9VwTEbAtaYM4Q_-43">
          <mxGeometry width="50" height="50" relative="1" as="geometry">
            <mxPoint x="430" y="390" as="sourcePoint" />
            <mxPoint x="750" y="520" as="targetPoint" />
          </mxGeometry>
        </mxCell>
        <mxCell id="WNVeSD9VwTEbAtaYM4Q_-45" value="ticket Recommendation()" style="html=1;verticalAlign=bottom;endArrow=open;dashed=1;endSize=8;rounded=0;" edge="1" parent="1">
          <mxGeometry relative="1" as="geometry">
            <mxPoint x="660" y="544" as="sourcePoint" />
            <mxPoint x="159.66666666666674" y="544" as="targetPoint" />
          </mxGeometry>
        </mxCell>
      </root>
    </mxGraphModel>
  </diagram>
</mxfile>
